<svg viewBox="0 0 892 92" xmlns="http://www.w3.org/2000/svg"><g fill="#fff"><path d="m31 11h10v10h-10z"/><path d="m21 11h10v10h-10z"/><path d="m11 21h10v10h-10z"/><path d="m11 31h10v10h-10z"/><path d="m11 41h10v10h-10z"/><path d="m11 51h10v10h-10z"/><path d="m11 61h10v10h-10z"/><path d="m21 71h10v10h-10z"/><path d="m31 71h10v10h-10z"/><path d="m41 71h10v10h-10z"/><path d="m51 61h10v10h-10z"/><path d="m51 51h10v10h-10z"/><path d="m51 41h10v10h-10z"/><path d="m51 31h10v10h-10z"/><path d="m51 21h10v10h-10z"/><path d="m41 11h10v10h-10z"/><path d="m71 11h10v10h-10z"/><path d="m71 21h10v10h-10z"/><path d="m71 31h10v10h-10z"/><path d="m71 41h10v10h-10z"/><path d="m71 51h10v10h-10z"/><path d="m71 61h10v10h-10z"/><path d="m71 71h10v10h-10z"/><path d="m81 31h10v10h-10z"/><path d="m91 41h10v10h-10z"/><path d="m101 51h10v10h-10z"/><path d="m111 11h10v10h-10z"/><path d="m111 21h10v10h-10z"/><path d="m111 31h10v10h-10z"/><path d="m111 41h10v10h-10z"/><path d="m111 51h10v10h-10z"/><path d="m111 61h10v10h-10z"/><path d="m111 71h10v10h-10z"/><path d="m131 11h10v10h-10z"/><path d="m131 21h10v10h-10z"/><path d="m131 31h10v10h-10z"/><path d="m131 41h10v10h-10z"/><path d="m131 51h10v10h-10z"/><path d="m131 61h10v10h-10z"/><path d="m131 71h10v10h-10z"/><path d="m141 71h10v10h-10z"/><path d="m151 71h10v10h-10z"/><path d="m161 71h10v10h-10z"/><path d="m171 71h10v10h-10z"/><path d="m141 11h10v10h-10z"/><path d="m151 11h10v10h-10z"/><path d="m161 11h10v10h-10z"/><path d="m171 11h10v10h-10z"/><path d="m141 41h10v10h-10z"/><path d="m151 41h10v10h-10z"/><path d="m161 41h10v10h-10z"/><path d="m231 11h10v10h-10z"/><path d="m241 11h10v10h-10z"/><path d="m251 11h10v10h-10z"/><path d="m261 21h10v10h-10z"/><path d="m261 31h10v10h-10z"/><path d="m251 41h10v10h-10z"/><path d="m241 41h10v10h-10z"/><path d="m231 41h10v10h-10z"/><path d="m221 11h10v10h-10z"/><path d="m221 21h10v10h-10z"/><path d="m221 31h10v10h-10z"/><path d="m221 41h10v10h-10z"/><path d="m221 51h10v10h-10z"/><path d="m221 61h10v10h-10z"/><path d="m221 71h10v10h-10z"/><path d="m281 11h10v10h-10z"/><path d="m291 11h10v10h-10z"/><path d="m301 11h10v10h-10z"/><path d="m291 21h10v10h-10z"/><path d="m291 31h10v10h-10z"/><path d="m291 41h10v10h-10z"/><path d="m291 51h10v10h-10z"/><path d="m291 61h10v10h-10z"/><path d="m281 71h10v10h-10z"/><path d="m291 71h10v10h-10z"/><path d="m301 71h10v10h-10z"/><path d="m321 11h10v10h-10z"/><path d="m321 21h10v10h-10z"/><path d="m331 31h10v10h-10z"/><path d="m341 41h10v10h-10z"/><path d="m351 51h10v10h-10z"/><path d="m361 61h10v10h-10z"/><path d="m361 71h10v10h-10z"/><path d="m361 11h10v10h-10z"/><path d="m361 21h10v10h-10z"/><path d="m351 31h10v10h-10z"/><path d="m331 51h10v10h-10z"/><path d="m321 61h10v10h-10z"/><path d="m321 71h10v10h-10z"/><path d="m381 11h10v10h-10z"/><path d="m381 21h10v10h-10z"/><path d="m381 31h10v10h-10z"/><path d="m381 41h10v10h-10z"/><path d="m381 51h10v10h-10z"/><path d="m381 61h10v10h-10z"/><path d="m381 71h10v10h-10z"/><path d="m391 71h10v10h-10z"/><path d="m401 71h10v10h-10z"/><path d="m411 71h10v10h-10z"/><path d="m421 71h10v10h-10z"/><path d="m391 11h10v10h-10z"/><path d="m401 11h10v10h-10z"/><path d="m411 11h10v10h-10z"/><path d="m421 11h10v10h-10z"/><path d="m391 41h10v10h-10z"/><path d="m401 41h10v10h-10z"/><path d="m411 41h10v10h-10z"/><path d="m441 11h10v10h-10z"/><path d="m441 21h10v10h-10z"/><path d="m441 31h10v10h-10z"/><path d="m441 41h10v10h-10z"/><path d="m441 51h10v10h-10z"/><path d="m441 61h10v10h-10z"/><path d="m441 71h10v10h-10z"/><path d="m451 71h10v10h-10z"/><path d="m461 71h10v10h-10z"/><path d="m471 71h10v10h-10z"/><path d="m481 71h10v10h-10z"/><path d="m551 11h10v10h-10z"/><path d="m541 21h10v10h-10z"/><path d="m531 31h10v10h-10z"/><path d="m531 41h10v10h-10z"/><path d="m531 51h10v10h-10z"/><path d="m531 61h10v10h-10z"/><path d="m531 71h10v10h-10z"/><path d="m561 21h10v10h-10z"/><path d="m571 31h10v10h-10z"/><path d="m571 41h10v10h-10z"/><path d="m571 51h10v10h-10z"/><path d="m571 61h10v10h-10z"/><path d="m571 71h10v10h-10z"/><path d="m541 51h10v10h-10z"/><path d="m551 51h10v10h-10z"/><path d="m561 51h10v10h-10z"/><path d="m591 11h10v10h-10z"/><path d="m601 11h10v10h-10z"/><path d="m611 11h10v10h-10z"/><path d="m621 11h10v10h-10z"/><path d="m631 11h10v10h-10z"/><path d="m611 21h10v10h-10z"/><path d="m611 31h10v10h-10z"/><path d="m611 41h10v10h-10z"/><path d="m611 51h10v10h-10z"/><path d="m611 61h10v10h-10z"/><path d="m611 71h10v10h-10z"/><path d="m651 11h10v10h-10z"/><path d="m661 11h10v10h-10z"/><path d="m671 11h10v10h-10z"/><path d="m681 11h10v10h-10z"/><path d="m691 11h10v10h-10z"/><path d="m671 21h10v10h-10z"/><path d="m671 31h10v10h-10z"/><path d="m671 41h10v10h-10z"/><path d="m671 51h10v10h-10z"/><path d="m671 61h10v10h-10z"/><path d="m671 71h10v10h-10z"/><path d="m731 11h10v10h-10z"/><path d="m721 21h10v10h-10z"/><path d="m711 31h10v10h-10z"/><path d="m711 41h10v10h-10z"/><path d="m711 51h10v10h-10z"/><path d="m711 61h10v10h-10z"/><path d="m711 71h10v10h-10z"/><path d="m741 21h10v10h-10z"/><path d="m751 31h10v10h-10z"/><path d="m751 41h10v10h-10z"/><path d="m751 51h10v10h-10z"/><path d="m751 61h10v10h-10z"/><path d="m751 71h10v10h-10z"/><path d="m721 51h10v10h-10z"/><path d="m731 51h10v10h-10z"/><path d="m741 51h10v10h-10z"/><path d="m811 21h10v10h-10z"/><path d="m801 11h10v10h-10z"/><path d="m791 11h10v10h-10z"/><path d="m781 11h10v10h-10z"/><path d="m771 21h10v10h-10z"/><path d="m771 31h10v10h-10z"/><path d="m771 41h10v10h-10z"/><path d="m771 51h10v10h-10z"/><path d="m771 61h10v10h-10z"/><path d="m781 71h10v10h-10z"/><path d="m791 71h10v10h-10z"/><path d="m801 71h10v10h-10z"/><path d="m811 61h10v10h-10z"/><path d="m831 11h10v10h-10z"/><path d="m831 21h10v10h-10z"/><path d="m831 31h10v10h-10z"/><path d="m831 41h10v10h-10z"/><path d="m831 51h10v10h-10z"/><path d="m831 61h10v10h-10z"/><path d="m831 71h10v10h-10z"/><path d="m871 11h10v10h-10z"/><path d="m871 21h10v10h-10z"/><path d="m861 31h10v10h-10z"/><path d="m841 41h10v10h-10z"/><path d="m851 41h10v10h-10z"/><path d="m861 51h10v10h-10z"/><path d="m871 61h10v10h-10z"/><path d="m871 71h10v10h-10z"/></g></svg>