<svg viewBox="0 0 96 96" xmlns="http://www.w3.org/2000/svg"><g fill="none" fill-rule="evenodd"><path d="m66 1.5 28 16v32" stroke="#fff" stroke-linecap="round" stroke-linejoin="round" stroke-width="1.5"/><path d="m66 1.5-5 3m33 13-5 3m5 29-5 3" stroke="#fff" stroke-linecap="round" stroke-linejoin="round" stroke-width="1.5"/><path d="m61 24.5v-20l28 16v32l-17.5-10" stroke="#fff" stroke-linecap="round" stroke-linejoin="round" stroke-width="1.5"/><ellipse cx="71.5" cy="22.5" fill="#3f51b5" rx="2.4" ry="1.4" transform="matrix(.5 .8660254 -.8660254 .5 55.235572 -50.670816)"/><ellipse cx="78.5" cy="26.5" fill="#fff" rx="2.4" ry="1.4" transform="matrix(.5 .8660254 -.8660254 .5 62.199673 -54.732994)"/><ellipse cx="78.5" cy="34.5" fill="#3f51b5" rx="2.4" ry="1.4" transform="matrix(.5 .8660254 -.8660254 .5 69.127876 -50.732994)"/><g stroke-linecap="round" stroke-linejoin="round" stroke-width="1.5"><path d="m71.5 22.5-5 3m12 9-5 3" stroke="#3f51b5"/><g stroke="#fff"><path d="m36.5 10.5 35 20v40"/><path d="m36.5 10.5-5 3m40 17-5 3m5 37-5 3"/><path d="m31.5 33.5v-20l35 20v40l-17.5-10"/></g></g><ellipse cx="41.5" cy="31.5" fill="#3f51b5" rx="2.4" ry="1.4" transform="matrix(.5 .8660254 -.8660254 .5 48.0298 -20.190054)"/><ellipse cx="48.5" cy="35.5" fill="#3f51b5" rx="2.4" ry="1.4" transform="matrix(.5 .8660254 -.8660254 .5 54.993902 -24.252232)"/><ellipse cx="55.5" cy="39.5" fill="#fff" rx="2.4" ry="1.4" transform="matrix(.5 .8660254 -.8660254 .5 61.958003 -28.31441)"/><ellipse cx="55.5" cy="47.5" fill="#3f51b5" rx="2.4" ry="1.4" transform="matrix(.5 .8660254 -.8660254 .5 68.886207 -24.31441)"/><ellipse cx="55.5" cy="55.5" fill="#fff" rx="2.4" ry="1.4" transform="matrix(.5 .8660254 -.8660254 .5 75.81441 -20.31441)"/><g stroke-linecap="round" stroke-linejoin="round" stroke-width="1.5"><path d="m41.5 31.5-5 3m12 1-5 3m12 9-5 3" stroke="#3f51b5"/><path d="m7 19.5 42 24v48" stroke="#fff"/><path d="m7 19.5-5 3m47 21-5 3m5 45-5 3" stroke="#fff"/><path d="m2 70.5v-48l42 24v48z" stroke="#fff"/></g><ellipse cx="12" cy="40.5" fill="#fff" rx="2.4" ry="1.4" transform="matrix(.5 .8660254 -.8660254 .5 41.074029 9.857695)"/><ellipse cx="19" cy="44.5" fill="#3f51b5" rx="2.4" ry="1.4" transform="matrix(.5 .8660254 -.8660254 .5 48.03813 5.795517)"/><ellipse cx="26" cy="48.5" fill="#3f51b5" rx="2.4" ry="1.4" transform="matrix(.5 .8660254 -.8660254 .5 55.002232 1.73334)"/><ellipse cx="33" cy="52.5" fill="#fff" rx="2.4" ry="1.4" transform="matrix(.5 .8660254 -.8660254 .5 61.966334 -2.328838)"/><ellipse cx="12" cy="48.5" fill="#fff" rx="2.4" ry="1.4" transform="matrix(.5 .8660254 -.8660254 .5 48.002232 13.857695)"/><ellipse cx="19" cy="52.5" fill="#fff" rx="2.4" ry="1.4" transform="matrix(.5 .8660254 -.8660254 .5 54.966334 9.795517)"/><ellipse cx="26" cy="56.5" fill="#fff" rx="2.4" ry="1.4" transform="matrix(.5 .8660254 -.8660254 .5 61.930435 5.73334)"/><ellipse cx="33" cy="60.5" fill="#3f51b5" rx="2.4" ry="1.4" transform="matrix(.5 .8660254 -.8660254 .5 68.894537 1.671162)"/><ellipse cx="12" cy="56.5" fill="#fff" rx="2.4" ry="1.4" transform="matrix(.5 .8660254 -.8660254 .5 54.930435 17.857695)"/><ellipse cx="19" cy="60.5" fill="#3f51b5" rx="2.4" ry="1.4" transform="matrix(.5 .8660254 -.8660254 .5 61.894537 13.795517)"/><ellipse cx="26" cy="64.5" fill="#fff" rx="2.4" ry="1.4" transform="matrix(.5 .8660254 -.8660254 .5 68.858639 9.73334)"/><ellipse cx="33" cy="68.5" fill="#fff" rx="2.4" ry="1.4" transform="matrix(.5 .8660254 -.8660254 .5 75.82274 5.671162)"/><ellipse cx="12" cy="64.5" fill="#3f51b5" rx="2.4" ry="1.4" transform="matrix(.5 .8660254 -.8660254 .5 61.858639 21.857695)"/><ellipse cx="19" cy="68.5" fill="#fff" rx="2.4" ry="1.4" transform="matrix(.5 .8660254 -.8660254 .5 68.82274 17.795517)"/><ellipse cx="26" cy="72.5" fill="#fff" rx="2.4" ry="1.4" transform="matrix(.5 .8660254 -.8660254 .5 75.786842 13.73334)"/><ellipse cx="33" cy="76.5" fill="#fff" rx="2.4" ry="1.4" transform="matrix(.5 .8660254 -.8660254 .5 82.750943 9.671162)"/></g></svg>